<svg xmlns="http://www.w3.org/2000/svg"><defs>
<clipPath id="add-to-cart-icon-clip0_2061_752">
<rect width="24" height="24"/>
</clipPath>

<clipPath id="cart-icon-clip0_819_1729">
<rect width="18" height="20" fill="white"/>
</clipPath>

<clipPath id="facebook-clip0_204_2500">
<rect width="24" height="24"/>
</clipPath>

<clipPath id="instagram-clip0_204_2501">
<rect width="24" height="24"/>
</clipPath>



        <path id="stumbleupon-path-1" d="M0,0.0749333333 L31.9250667,0.0749333333 L31.9250667,31.984 L0,31.984"/>
    </defs><symbol viewBox="0 0 20 20" id="icon-account-user">
<path d="M10.0002 10C12.3013 10 14.1668 8.13452 14.1668 5.83333C14.1668 3.53214 12.3013 1.66666 10.0002 1.66666C7.69898 1.66666 5.8335 3.53214 5.8335 5.83333C5.8335 8.13452 7.69898 10 10.0002 10Z" stroke-width="1.5" stroke-linecap="round" stroke-linejoin="round"/>
<path d="M17.1585 18.3333C17.1585 15.1083 13.9501 12.5 10.0001 12.5C6.05013 12.5 2.8418 15.1083 2.8418 18.3333" stroke-width="1.5" stroke-linecap="round" stroke-linejoin="round"/>
</symbol><symbol viewBox="0 0 24 24" id="icon-add-to-cart-icon">
<g clip-path="url(#add-to-cart-icon-clip0_2061_752)">
<path d="M1.54834 11.6128H21.6774" stroke-linecap="round" stroke-linejoin="round"/>
<path d="M11.613 21.6774V1.54834" stroke-linecap="round" stroke-linejoin="round"/>
</g>

</symbol><symbol viewBox="0 0 24 24" id="icon-add"><path d="M19 13h-6v6h-2v-6H5v-2h6V5h2v6h6v2z"/></symbol><symbol viewBox="0 0 20 19" id="icon-admin-brush">
<path d="M5 12C3.34 12 2 13.34 2 15C2 16.31 0.84 17 0 17C0.92 18.22 2.49 19 4 19C6.21 19 8 17.21 8 15C8 13.34 6.66 12 5 12ZM18.71 2.63L17.37 1.29C16.98 0.899999 16.35 0.899999 15.96 1.29L7 10.25L9.75 13L18.71 4.04C19.1 3.65 19.1 3.02 18.71 2.63Z" fill="#3E67F8"/>
</symbol><symbol viewBox="0 0 12 8" id="icon-admin-close">
<path d="M5.28997 0.70998L0.699971 5.29998C0.309971 5.68998 0.309971 6.31998 0.699971 6.70998C1.08997 7.09998 1.71997 7.09998 2.10997 6.70998L5.99997 2.82998L9.87997 6.70998C10.27 7.09998 10.9 7.09998 11.29 6.70998C11.68 6.31998 11.68 5.68998 11.29 5.29998L6.69997 0.70998C6.31997 0.31998 5.67997 0.31998 5.28997 0.70998Z" fill="#5E637A"/>
</symbol><symbol viewBox="0 0 19 19" id="icon-admin-edit">
<path d="M0 15.46V18.5C0 18.78 0.22 19 0.5 19H3.54C3.67 19 3.8 18.95 3.89 18.85L14.81 7.94L11.06 4.19L0.15 15.1C0.0500001 15.2 0 15.32 0 15.46ZM17.71 5.04C18.1 4.65 18.1 4.02 17.71 3.63L15.37 1.29C14.98 0.899999 14.35 0.899999 13.96 1.29L12.13 3.12L15.88 6.87L17.71 5.04Z" fill="#3E67F8"/>
</symbol><symbol viewBox="0 0 18 18" id="icon-admin-link">
<path d="M15 16H3C2.45 16 2 15.55 2 15V3C2 2.45 2.45 2 3 2H8C8.55 2 9 1.55 9 1C9 0.45 8.55 0 8 0H2C0.89 0 0 0.9 0 2V16C0 17.1 0.9 18 2 18H16C17.1 18 18 17.1 18 16V10C18 9.45 17.55 9 17 9C16.45 9 16 9.45 16 10V15C16 15.55 15.55 16 15 16ZM11 1C11 1.55 11.45 2 12 2H14.59L5.46 11.13C5.07 11.52 5.07 12.15 5.46 12.54C5.85 12.93 6.48 12.93 6.87 12.54L16 3.41V6C16 6.55 16.45 7 17 7C17.55 7 18 6.55 18 6V0H12C11.45 0 11 0.45 11 1Z" fill="#3E67F8"/>
</symbol><symbol viewBox="0 0 20 20" id="icon-admin-tooltip">
<path d="M10 0C4.48 0 0 4.48 0 10C0 15.52 4.48 20 10 20C15.52 20 20 15.52 20 10C20 4.48 15.52 0 10 0ZM10 15C9.45 15 9 14.55 9 14V10C9 9.45 9.45 9 10 9C10.55 9 11 9.45 11 10V14C11 14.55 10.55 15 10 15ZM11 7H9V5H11V7Z" fill="#5E637A"/>
</symbol><symbol viewBox="0 0 36 36" id="icon-arrow-down">
<path d="M16.5 6v18.26l-8.38-8.38-2.12 2.12 12 12 12-12-2.12-2.12-8.38 8.38v-18.26h-3z"/>
</symbol><symbol viewBox="0 0 24 24" id="icon-arrow-right">
<path d="M14.4302 5.92969L20.5002 11.9997L14.4302 18.0697" stroke-width="1.5" stroke-miterlimit="10" stroke-linecap="round" stroke-linejoin="round"/>
<path d="M3.5 12H20.33" stroke-width="1.5" stroke-miterlimit="10" stroke-linecap="round" stroke-linejoin="round"/>
</symbol><symbol viewBox="0 0 24 24" id="icon-calendar">
<path d="M8 2V5" stroke-width="1.5" stroke-miterlimit="10" stroke-linecap="round" stroke-linejoin="round"/>
<path d="M16 2V5" stroke-width="1.5" stroke-miterlimit="10" stroke-linecap="round" stroke-linejoin="round"/>
<path d="M3.5 9.08984H20.5" stroke-width="1.5" stroke-miterlimit="10" stroke-linecap="round" stroke-linejoin="round"/>
<path d="M21 8.5V17C21 20 19.5 22 16 22H8C4.5 22 3 20 3 17V8.5C3 5.5 4.5 3.5 8 3.5H16C19.5 3.5 21 5.5 21 8.5Z" stroke-width="1.5" stroke-miterlimit="10" stroke-linecap="round" stroke-linejoin="round"/>
<path d="M15.6947 13.7002H15.7037" stroke-width="2" stroke-linecap="round" stroke-linejoin="round"/>
<path d="M15.6947 16.7002H15.7037" stroke-width="2" stroke-linecap="round" stroke-linejoin="round"/>
<path d="M11.9955 13.7002H12.0045" stroke-width="2" stroke-linecap="round" stroke-linejoin="round"/>
<path d="M11.9955 16.7002H12.0045" stroke-width="2" stroke-linecap="round" stroke-linejoin="round"/>
<path d="M8.29431 13.7002H8.30329" stroke-width="2" stroke-linecap="round" stroke-linejoin="round"/>
<path d="M8.29431 16.7002H8.30329" stroke-width="2" stroke-linecap="round" stroke-linejoin="round"/>
</symbol><symbol viewBox="0 0 18 20" id="icon-cart-icon">
<g clip-path="url(#cart-icon-clip0_819_1729)">
<path d="M4.875 6.03084V5.14167C4.875 3.07917 6.53417 1.05334 8.59667 0.860841C11.0533 0.622508 13.125 2.55667 13.125 4.96751V6.23251" stroke-width="1.5" stroke-miterlimit="10" stroke-linecap="round" stroke-linejoin="round"/>
<path d="M6.25009 19.1666H11.7501C15.4351 19.1666 16.0951 17.6908 16.2876 15.8941L16.9751 10.3941C17.2226 8.15748 16.5809 6.33331 12.6668 6.33331H5.33342C1.41925 6.33331 0.777585 8.15748 1.02509 10.3941L1.71259 15.8941C1.90509 17.6908 2.56509 19.1666 6.25009 19.1666Z" stroke-width="1.5" stroke-miterlimit="10" stroke-linecap="round" stroke-linejoin="round"/>
<path d="M12.2043 10H12.2125" stroke-width="2" stroke-linecap="round" stroke-linejoin="round"/>
<path d="M5.78655 10H5.79478" stroke-width="2" stroke-linecap="round" stroke-linejoin="round"/>
</g>

</symbol><symbol viewBox="0 0 12 8" id="icon-chevron-down"><path d="M6 6.174l5.313-4.96.23-.214.457.427-.23.214-5.51 5.146L6.03 7 6 6.972 5.97 7l-.23-.214L.23 1.64 0 1.428.458 1l.23.214L6 6.174z" stroke-linecap="square" fill-rule="evenodd"/></symbol><symbol viewBox="0 0 24 24" id="icon-chevron-left"><path d="M15.41 7.41L14 6l-6 6 6 6 1.41-1.41L10.83 12z"/></symbol><symbol viewBox="0 0 24 24" id="icon-chevron-right"><path d="M10 6L8.59 7.41 13.17 12l-4.58 4.59L10 18l6-6z"/></symbol><symbol viewBox="0 0 24 24" id="icon-close"><path d="M19 6.41L17.59 5 12 10.59 6.41 5 5 6.41 10.59 12 5 17.59 6.41 19 12 13.41 17.59 19 19 17.59 13.41 12z"/></symbol><symbol viewBox="0 0 18 18" id="icon-edit-option">
<path d="M8.25 1.5H6.75C3 1.5 1.5 3 1.5 6.75V11.25C1.5 15 3 16.5 6.75 16.5H11.25C15 16.5 16.5 15 16.5 11.25V9.75" stroke-width="1.125" stroke-linecap="round" stroke-linejoin="round"/>
<path d="M12.0299 2.265L6.11991 8.175C5.89491 8.4 5.66991 8.8425 5.62491 9.165L5.30241 11.4225C5.18241 12.24 5.75991 12.81 6.57741 12.6975L8.83491 12.375C9.14991 12.33 9.59241 12.105 9.82491 11.88L15.7349 5.97C16.7549 4.95 17.2349 3.765 15.7349 2.265C14.2349 0.764999 13.0499 1.245 12.0299 2.265Z" stroke-width="1.125" stroke-miterlimit="10" stroke-linecap="round" stroke-linejoin="round"/>
<path d="M11.1824 3.1125C11.6849 4.905 13.0874 6.3075 14.8874 6.8175" stroke-width="1.125" stroke-miterlimit="10" stroke-linecap="round" stroke-linejoin="round"/>
</symbol><symbol viewBox="0 0 28 28" id="icon-envelope">
<path d="M0 23.5v-12.406q0.688 0.766 1.578 1.359 5.656 3.844 7.766 5.391 0.891 0.656 1.445 1.023t1.477 0.75 1.719 0.383h0.031q0.797 0 1.719-0.383t1.477-0.75 1.445-1.023q2.656-1.922 7.781-5.391 0.891-0.609 1.563-1.359v12.406q0 1.031-0.734 1.766t-1.766 0.734h-23q-1.031 0-1.766-0.734t-0.734-1.766zM0 6.844q0-1.219 0.648-2.031t1.852-0.812h23q1.016 0 1.758 0.734t0.742 1.766q0 1.234-0.766 2.359t-1.906 1.922q-5.875 4.078-7.313 5.078-0.156 0.109-0.664 0.477t-0.844 0.594-0.812 0.508-0.898 0.422-0.781 0.141h-0.031q-0.359 0-0.781-0.141t-0.898-0.422-0.812-0.508-0.844-0.594-0.664-0.477q-1.422-1-4.094-2.852t-3.203-2.227q-0.969-0.656-1.828-1.805t-0.859-2.133z"/>
</symbol><symbol viewBox="0 0 24 24" id="icon-facebook">
<g clip-path="url(#facebook-clip0_204_2500)">
<path d="M12 0C5.37264 0 0 5.37264 0 12C0 17.6275 3.87456 22.3498 9.10128 23.6467V15.6672H6.62688V12H9.10128V10.4198C9.10128 6.33552 10.9498 4.4424 14.9597 4.4424C15.72 4.4424 17.0318 4.59168 17.5685 4.74048V8.06448C17.2853 8.03472 16.7933 8.01984 16.1822 8.01984C14.2147 8.01984 13.4544 8.76528 13.4544 10.703V12H17.3741L16.7006 15.6672H13.4544V23.9122C19.3963 23.1946 24.0005 18.1354 24.0005 12C24 5.37264 18.6274 0 12 0Z"/>
</g>

</symbol><symbol viewBox="0 0 20 28" id="icon-google">
<path d="M1.734 21.156q0-1.266 0.695-2.344t1.852-1.797q2.047-1.281 6.312-1.563-0.5-0.641-0.742-1.148t-0.242-1.148q0-0.625 0.328-1.328-0.719 0.063-1.062 0.063-2.312 0-3.898-1.508t-1.586-3.82q0-1.281 0.562-2.484t1.547-2.047q1.188-1.031 2.844-1.531t3.406-0.5h6.516l-2.141 1.375h-2.063q1.172 0.984 1.766 2.078t0.594 2.5q0 1.125-0.383 2.023t-0.93 1.453-1.086 1.016-0.922 0.961-0.383 1.031q0 0.562 0.5 1.102t1.203 1.062 1.414 1.148 1.211 1.625 0.5 2.219q0 1.422-0.766 2.703-1.109 1.906-3.273 2.805t-4.664 0.898q-2.063 0-3.852-0.648t-2.695-2.148q-0.562-0.922-0.562-2.047zM4.641 20.438q0 0.875 0.367 1.594t0.953 1.18 1.359 0.781 1.563 0.453 1.586 0.133q0.906 0 1.742-0.203t1.547-0.609 1.141-1.141 0.43-1.703q0-0.391-0.109-0.766t-0.227-0.656-0.422-0.648-0.461-0.547-0.602-0.539-0.57-0.453-0.648-0.469-0.57-0.406q-0.25-0.031-0.766-0.031-0.828 0-1.633 0.109t-1.672 0.391-1.516 0.719-1.070 1.164-0.422 1.648zM6.297 4.906q0 0.719 0.156 1.523t0.492 1.609 0.812 1.445 1.172 1.047 1.508 0.406q0.578 0 1.211-0.258t1.023-0.68q0.828-0.875 0.828-2.484 0-0.922-0.266-1.961t-0.75-2.016-1.313-1.617-1.828-0.641q-0.656 0-1.289 0.305t-1.039 0.82q-0.719 0.922-0.719 2.5z"/>
</symbol><symbol viewBox="0 0 1024 1024" id="icon-grid">


<path d="M409.6 1024h-409.6v-409.6h409.6v409.6zM1024 1024h-409.6v-409.6h409.6v409.6zM81.92 696.32v245.76h245.76v-245.76h-245.76zM696.32 696.32v245.76h245.76v-245.76h-245.76zM409.6 409.6h-409.6v-409.6h409.6v409.6zM1024 409.6h-409.6v-409.6h409.6v409.6zM81.92 81.92v245.76h245.76v-245.76h-245.76zM696.32 81.92v245.76h245.76v-245.76h-245.76z"/>
</symbol><symbol viewBox="0 0 24 24" id="icon-instagram">
<g clip-path="url(#instagram-clip0_204_2501)">
<path d="M12 2.16094C15.2063 2.16094 15.5859 2.175 16.8469 2.23125C18.0188 2.28281 18.6516 2.47969 19.0734 2.64375C19.6313 2.85938 20.0344 3.12188 20.4516 3.53906C20.8734 3.96094 21.1313 4.35938 21.3469 4.91719C21.5109 5.33906 21.7078 5.97656 21.7594 7.14375C21.8156 8.40937 21.8297 8.78906 21.8297 11.9906C21.8297 15.1969 21.8156 15.5766 21.7594 16.8375C21.7078 18.0094 21.5109 18.6422 21.3469 19.0641C21.1313 19.6219 20.8687 20.025 20.4516 20.4422C20.0297 20.8641 19.6313 21.1219 19.0734 21.3375C18.6516 21.5016 18.0141 21.6984 16.8469 21.75C15.5813 21.8062 15.2016 21.8203 12 21.8203C8.79375 21.8203 8.41406 21.8062 7.15313 21.75C5.98125 21.6984 5.34844 21.5016 4.92656 21.3375C4.36875 21.1219 3.96563 20.8594 3.54844 20.4422C3.12656 20.0203 2.86875 19.6219 2.65313 19.0641C2.48906 18.6422 2.29219 18.0047 2.24063 16.8375C2.18438 15.5719 2.17031 15.1922 2.17031 11.9906C2.17031 8.78438 2.18438 8.40469 2.24063 7.14375C2.29219 5.97187 2.48906 5.33906 2.65313 4.91719C2.86875 4.35938 3.13125 3.95625 3.54844 3.53906C3.97031 3.11719 4.36875 2.85938 4.92656 2.64375C5.34844 2.47969 5.98594 2.28281 7.15313 2.23125C8.41406 2.175 8.79375 2.16094 12 2.16094ZM12 0C8.74219 0 8.33438 0.0140625 7.05469 0.0703125C5.77969 0.126563 4.90313 0.332812 4.14375 0.628125C3.35156 0.9375 2.68125 1.34531 2.01563 2.01562C1.34531 2.68125 0.9375 3.35156 0.628125 4.13906C0.332812 4.90313 0.126563 5.775 0.0703125 7.05C0.0140625 8.33437 0 8.74219 0 12C0 15.2578 0.0140625 15.6656 0.0703125 16.9453C0.126563 18.2203 0.332812 19.0969 0.628125 19.8563C0.9375 20.6484 1.34531 21.3188 2.01563 21.9844C2.68125 22.65 3.35156 23.0625 4.13906 23.3672C4.90313 23.6625 5.775 23.8687 7.05 23.925C8.32969 23.9812 8.7375 23.9953 11.9953 23.9953C15.2531 23.9953 15.6609 23.9812 16.9406 23.925C18.2156 23.8687 19.0922 23.6625 19.8516 23.3672C20.6391 23.0625 21.3094 22.65 21.975 21.9844C22.6406 21.3188 23.0531 20.6484 23.3578 19.8609C23.6531 19.0969 23.8594 18.225 23.9156 16.95C23.9719 15.6703 23.9859 15.2625 23.9859 12.0047C23.9859 8.74688 23.9719 8.33906 23.9156 7.05938C23.8594 5.78438 23.6531 4.90781 23.3578 4.14844C23.0625 3.35156 22.6547 2.68125 21.9844 2.01562C21.3188 1.35 20.6484 0.9375 19.8609 0.632812C19.0969 0.3375 18.225 0.13125 16.95 0.075C15.6656 0.0140625 15.2578 0 12 0Z"/>
<path d="M12 5.83594C8.59688 5.83594 5.83594 8.59688 5.83594 12C5.83594 15.4031 8.59688 18.1641 12 18.1641C15.4031 18.1641 18.1641 15.4031 18.1641 12C18.1641 8.59688 15.4031 5.83594 12 5.83594ZM12 15.9984C9.79219 15.9984 8.00156 14.2078 8.00156 12C8.00156 9.79219 9.79219 8.00156 12 8.00156C14.2078 8.00156 15.9984 9.79219 15.9984 12C15.9984 14.2078 14.2078 15.9984 12 15.9984Z"/>
<path d="M19.8469 5.59238C19.8469 6.38926 19.2 7.03145 18.4078 7.03145C17.6109 7.03145 16.9688 6.38457 16.9688 5.59238C16.9688 4.79551 17.6156 4.15332 18.4078 4.15332C19.2 4.15332 19.8469 4.8002 19.8469 5.59238Z"/>
</g>

</symbol><symbol viewBox="0 0 24 24" id="icon-keyboard-arrow-down"><path d="M7.41 7.84L12 12.42l4.59-4.58L18 9.25l-6 6-6-6z"/></symbol><symbol viewBox="0 0 24 24" id="icon-keyboard-arrow-up"><path d="M7.41 15.41L12 10.83l4.59 4.58L18 14l-6-6-6 6z"/></symbol><symbol viewBox="0 0 32 32" id="icon-linkedin">
    <path d="M27.2684444,27.2675556 L22.5226667,27.2675556 L22.5226667,19.8408889 C22.5226667,18.0702222 22.4924444,15.792 20.0568889,15.792 C17.5866667,15.792 17.2097778,17.7217778 17.2097778,19.7146667 L17.2097778,27.2675556 L12.4693333,27.2675556 L12.4693333,11.9964444 L17.0186667,11.9964444 L17.0186667,14.0844444 L17.0844444,14.0844444 C17.7173333,12.8835556 19.2657778,11.6177778 21.5742222,11.6177778 C26.3804444,11.6177778 27.2684444,14.7795556 27.2684444,18.8924444 L27.2684444,27.2675556 L27.2684444,27.2675556 Z M7.11822222,9.91022222 C5.59377778,9.91022222 4.36444444,8.67733333 4.36444444,7.15733333 C4.36444444,5.63822222 5.59377778,4.40533333 7.11822222,4.40533333 C8.63644444,4.40533333 9.86844444,5.63822222 9.86844444,7.15733333 C9.86844444,8.67733333 8.63644444,9.91022222 7.11822222,9.91022222 L7.11822222,9.91022222 Z M4.74133333,11.9964444 L9.49244444,11.9964444 L9.49244444,27.2675556 L4.74133333,27.2675556 L4.74133333,11.9964444 Z M29.632,0 L2.36,0 C1.05777778,0 0,1.03288889 0,2.30755556 L0,29.6906667 C0,30.9653333 1.05777778,32 2.36,32 L29.632,32 C30.9368889,32 31.9991111,30.9653333 31.9991111,29.6906667 L31.9991111,2.30755556 C31.9991111,1.03288889 30.9368889,0 29.632,0 L29.632,0 Z" id="linkedin-Fill-4"/>
</symbol><symbol viewBox="0 0 1229 1024" id="icon-list">


<path d="M860.16 942.080v81.92h-860.16v-81.92h860.16zM1228.8 614.4v81.92h-1228.8v-81.92h1228.8zM860.16 327.68v81.92h-860.16v-81.92h860.16zM1228.8 0v81.92h-1228.8v-81.92h1228.8z"/>
</symbol><symbol viewBox="0 0 24 24" id="icon-lock"><path d="M18 8h-1V6c0-2.76-2.24-5-5-5S7 3.24 7 6v2H6c-1.1 0-2 .9-2 2v10c0 1.1.9 2 2 2h12c1.1 0 2-.9 2-2V10c0-1.1-.9-2-2-2zm-6 9c-1.1 0-2-.9-2-2s.9-2 2-2 2 .9 2 2-.9 2-2 2zm3.1-9H8.9V6c0-1.71 1.39-3.1 3.1-3.1 1.71 0 3.1 1.39 3.1 3.1v2z"/></symbol><symbol viewBox="0 0 102 32" id="icon-logo-amazonpay">

<path fill="#f90" d="M62.915 24.568c-5.817 4.284-14.248 6.57-21.508 6.57-10.179 0-19.342-3.762-26.275-10.019-0.545-0.492-0.057-1.163 0.597-0.779 7.482 4.35 16.732 6.967 26.288 6.967 6.444 0 13.534-1.332 20.052-4.097 0.985-0.418 1.808 0.644 0.845 1.358z"/>
<path fill="#f90" d="M65.333 21.803c-0.741-0.949-4.915-0.448-6.789-0.226-0.571 0.070-0.658-0.427-0.144-0.784 3.325-2.338 8.78-1.663 9.416-0.88 0.636 0.788-0.166 6.252-3.29 8.861-0.479 0.401-0.937 0.187-0.723-0.344 0.702-1.75 2.275-5.673 1.529-6.627z"/>
<path fill="#221f1f" d="M58.675 4.287v-2.273c0-0.344 0.261-0.575 0.575-0.575h10.183c0.327 0 0.588 0.235 0.588 0.575v1.946c-0.004 0.327-0.279 0.753-0.767 1.428l-5.277 7.528c1.961-0.048 4.031 0.244 5.808 1.245 0.401 0.226 0.51 0.557 0.54 0.884v2.425c0 0.331-0.366 0.718-0.749 0.518-3.133-1.642-7.294-1.82-10.758 0.017-0.353 0.192-0.723-0.192-0.723-0.523v-2.303c0-0.37 0.004-1.001 0.375-1.563l6.113-8.76h-5.32c-0.327 0-0.588-0.231-0.588-0.57z"/>
<path fill="#221f1f" d="M21.529 18.468h-3.098c-0.296-0.022-0.532-0.244-0.553-0.527v-15.888c0-0.318 0.266-0.57 0.597-0.57h2.889c0.301 0.013 0.54 0.244 0.562 0.531v2.077h0.057c0.754-2.007 2.17-2.943 4.078-2.943 1.939 0 3.15 0.936 4.022 2.943 0.749-2.007 2.453-2.943 4.279-2.943 1.298 0 2.719 0.536 3.586 1.737 0.98 1.337 0.78 3.279 0.78 4.981l-0.004 10.027c0 0.318-0.266 0.575-0.597 0.575h-3.094c-0.309-0.022-0.558-0.27-0.558-0.575v-8.421c0-0.671 0.061-2.342-0.087-2.978-0.231-1.067-0.924-1.367-1.821-1.367-0.749 0-1.534 0.501-1.852 1.302s-0.288 2.142-0.288 3.043v8.421c0 0.318-0.266 0.575-0.597 0.575h-3.094c-0.314-0.022-0.558-0.27-0.558-0.575l-0.004-8.421c0-1.772 0.292-4.38-1.909-4.38-2.227 0-2.139 2.543-2.139 4.38v8.421c0 0.318-0.266 0.575-0.597 0.575z"/>
<path fill="#221f1f" d="M78.789 1.148c4.597 0 7.085 3.945 7.085 8.961 0 4.846-2.749 8.691-7.085 8.691-4.514 0-6.972-3.945-6.972-8.861 0-4.946 2.488-8.791 6.972-8.791zM78.815 4.391c-2.283 0-2.427 3.109-2.427 5.046 0 1.942-0.031 6.087 2.401 6.087 2.401 0 2.514-3.344 2.514-5.382 0-1.341-0.057-2.943-0.462-4.215-0.349-1.106-1.041-1.537-2.026-1.537z"/>
<path fill="#221f1f" d="M91.835 18.468h-3.085c-0.309-0.022-0.558-0.27-0.558-0.575l-0.004-15.892c0.026-0.292 0.283-0.518 0.597-0.518h2.871c0.27 0.013 0.492 0.196 0.553 0.444v2.43h0.057c0.867-2.173 2.083-3.209 4.222-3.209 1.39 0 2.745 0.501 3.617 1.872 0.81 1.271 0.81 3.409 0.81 4.946v10.001c-0.035 0.279-0.292 0.501-0.597 0.501h-3.107c-0.283-0.022-0.519-0.231-0.549-0.501v-8.63c0-1.737 0.2-4.28-1.939-4.28-0.754 0-1.447 0.505-1.791 1.271-0.436 0.971-0.492 1.938-0.492 3.009v8.556c-0.004 0.318-0.275 0.575-0.606 0.575z"/>
<path fill="#221f1f" d="M50.557 10.879v-0.671c-2.244 0-4.61 0.479-4.61 3.117 0 1.337 0.697 2.242 1.887 2.242 0.867 0 1.651-0.536 2.144-1.406 0.61-1.071 0.58-2.077 0.58-3.283zM53.682 18.425c-0.205 0.183-0.501 0.196-0.732 0.074-1.028-0.853-1.216-1.25-1.778-2.064-1.699 1.733-2.906 2.251-5.107 2.251-2.61 0-4.636-1.607-4.636-4.824 0-2.512 1.359-4.223 3.303-5.059 1.682-0.74 4.031-0.871 5.826-1.075v-0.401c0-0.736 0.057-1.607-0.379-2.242-0.375-0.57-1.098-0.806-1.739-0.806-1.181 0-2.231 0.605-2.488 1.859-0.052 0.279-0.257 0.553-0.54 0.566l-3.002-0.322c-0.253-0.057-0.536-0.261-0.462-0.649 0.688-3.64 3.983-4.737 6.928-4.737 1.508 0 3.477 0.401 4.667 1.541 1.508 1.406 1.364 3.283 1.364 5.325v4.824c0 1.45 0.601 2.086 1.168 2.869 0.196 0.279 0.24 0.614-0.013 0.823-0.632 0.527-1.756 1.506-2.375 2.055l-0.004-0.009z"/>
<path fill="#221f1f" d="M9.943 10.879v-0.671c-2.24 0-4.606 0.479-4.606 3.117 0 1.337 0.693 2.242 1.882 2.242 0.871 0 1.651-0.536 2.144-1.406 0.61-1.071 0.58-2.077 0.58-3.283zM13.067 18.425c-0.205 0.183-0.501 0.196-0.732 0.074-1.028-0.853-1.211-1.25-1.778-2.064-1.699 1.733-2.902 2.251-5.107 2.251-2.606 0-4.636-1.607-4.636-4.824 0-2.512 1.364-4.223 3.303-5.059 1.682-0.74 4.031-0.871 5.826-1.075v-0.401c0-0.736 0.057-1.607-0.375-2.242-0.379-0.57-1.102-0.806-1.739-0.806-1.181 0-2.235 0.605-2.492 1.859-0.052 0.279-0.257 0.553-0.536 0.566l-3.007-0.322c-0.253-0.057-0.532-0.261-0.462-0.649 0.693-3.64 3.983-4.737 6.928-4.737 1.508 0 3.477 0.401 4.667 1.541 1.508 1.406 1.364 3.283 1.364 5.325v4.824c0 1.45 0.601 2.086 1.168 2.869 0.2 0.279 0.244 0.614-0.009 0.823-0.632 0.527-1.756 1.506-2.375 2.055l-0.009-0.009z"/>
</symbol><symbol viewBox="0 0 86 32" id="icon-logo-american-express">

<path fill="#0072ce" d="M85.424 21.742h-4.348c-0.434 0-0.723 0.016-0.966 0.18-0.252 0.161-0.349 0.4-0.349 0.716 0 0.375 0.213 0.631 0.522 0.741 0.252 0.087 0.522 0.113 0.919 0.113l1.293 0.035c1.305 0.032 2.176 0.256 2.707 0.801 0.097 0.076 0.155 0.161 0.221 0.246v-2.832zM85.424 28.305c-0.58 0.845-1.709 1.273-3.238 1.273h-4.608v-2.134h4.589c0.455 0 0.774-0.060 0.966-0.246 0.166-0.154 0.282-0.378 0.282-0.649 0-0.29-0.116-0.52-0.291-0.658-0.173-0.152-0.425-0.221-0.841-0.221-2.24-0.076-5.035 0.069-5.035-3.081 0-1.444 0.919-2.964 3.423-2.964h4.752v-1.98h-4.415c-1.333 0-2.3 0.318-2.986 0.813v-0.813h-6.531c-1.044 0-2.27 0.258-2.85 0.813v-0.813h-11.663v0.813c-0.928-0.668-2.494-0.813-3.217-0.813h-7.693v0.813c-0.734-0.709-2.367-0.813-3.363-0.813h-8.61l-1.97 2.126-1.845-2.126h-12.861v13.889h12.619l2.030-2.159 1.912 2.159 7.778 0.007v-3.267h0.765c1.032 0.016 2.249-0.026 3.323-0.488v3.748h6.416v-3.62h0.309c0.395 0 0.434 0.016 0.434 0.41v3.21h19.49c1.237 0 2.531-0.316 3.247-0.889v0.889h6.182c1.286 0 2.543-0.18 3.499-0.64v-2.587zM75.907 24.328c0.465 0.479 0.714 1.084 0.714 2.109 0 2.141-1.342 3.141-3.748 3.141h-4.647v-2.134h4.628c0.453 0 0.773-0.060 0.975-0.246 0.164-0.154 0.282-0.378 0.282-0.649 0-0.29-0.127-0.52-0.291-0.658-0.182-0.152-0.434-0.221-0.85-0.221-2.231-0.076-5.025 0.069-5.025-3.081 0-1.444 0.91-2.964 3.411-2.964h4.783v2.119h-4.377c-0.434 0-0.716 0.016-0.956 0.18-0.261 0.161-0.358 0.4-0.358 0.716 0 0.375 0.222 0.631 0.522 0.741 0.252 0.087 0.522 0.113 0.928 0.113l1.284 0.035c1.295 0.032 2.184 0.255 2.725 0.801v0zM54.378 23.713c-0.319 0.189-0.714 0.205-1.178 0.205h-2.898v-2.236h2.938c0.425 0 0.85 0.009 1.139 0.18 0.309 0.161 0.494 0.469 0.494 0.895s-0.185 0.769-0.494 0.955v0zM55.819 24.952c0.531 0.195 0.965 0.546 1.169 0.836 0.337 0.486 0.386 0.94 0.395 1.817v1.973h-2.395v-1.245c0-0.599 0.058-1.486-0.386-1.948-0.349-0.357-0.88-0.442-1.75-0.442h-2.55v3.636h-2.397v-9.954h5.508c1.208 0 2.088 0.053 2.871 0.47 0.753 0.454 1.227 1.075 1.227 2.21-0 1.589-1.063 2.4-1.691 2.648v0zM58.833 19.624h7.963v2.059h-5.587v1.81h5.451v2.031h-5.451v1.98l5.587 0.009v2.065h-7.963v-9.954zM42.736 24.218h-3.083v-2.535h3.111c0.861 0 1.459 0.35 1.459 1.22 0 0.861-0.57 1.314-1.487 1.314v0zM37.276 28.673l-3.663-4.055 3.663-3.926v7.98zM27.816 27.504h-5.866v-1.98h5.238v-2.031h-5.238v-1.81h5.982l2.61 2.901-2.725 2.92zM46.784 22.903c0 2.765-2.069 3.336-4.155 3.336h-2.977v3.339h-4.637l-2.938-3.295-3.053 3.295h-9.451v-9.954h9.596l2.935 3.263 3.035-3.263h7.624c1.893 0 4.021 0.523 4.021 3.279v0z"/>
<path fill="#0072ce" d="M8.191 8.153l-1.633-3.967-1.624 3.967h3.257zM44.165 6.573c-0.328 0.198-0.716 0.205-1.18 0.205h-2.898v-2.21h2.938c0.416 0 0.85 0.019 1.131 0.179 0.309 0.145 0.501 0.454 0.501 0.88 0 0.435-0.182 0.785-0.492 0.946v0zM64.842 8.153l-1.651-3.967-1.642 3.967h3.293zM26.299 12.447h-2.446l-0.009-7.794-3.46 7.794h-2.095l-3.469-7.801v7.801h-4.853l-0.917-2.22h-4.968l-0.926 2.22h-2.591l4.272-9.952h3.545l4.058 9.422v-9.422h3.894l3.122 6.751 2.868-6.751h3.972v9.952h0zM36.048 12.447h-7.97v-9.952h7.97v2.072h-5.584v1.794h5.45v2.040h-5.45v1.987h5.584v2.058zM47.285 5.176c0 1.587-1.062 2.406-1.681 2.653 0.522 0.198 0.968 0.548 1.18 0.838 0.337 0.495 0.395 0.937 0.395 1.826v1.955h-2.406l-0.009-1.255c0-0.599 0.057-1.46-0.377-1.939-0.349-0.35-0.88-0.426-1.739-0.426h-2.561v3.62h-2.386v-9.952h5.488c1.219 0 2.118 0.032 2.889 0.477 0.755 0.445 1.207 1.094 1.207 2.203v0zM51.104 12.447h-2.434v-9.952h2.434v9.952zM79.346 12.447h-3.381l-4.522-7.469v7.469h-4.859l-0.928-2.22h-4.956l-0.901 2.22h-2.792c-1.16 0-2.628-0.256-3.46-1.101-0.838-0.845-1.275-1.989-1.275-3.799 0-1.476 0.261-2.825 1.286-3.891 0.771-0.794 1.979-1.16 3.623-1.16h2.31v2.132h-2.261c-0.871 0-1.362 0.129-1.836 0.59-0.407 0.419-0.686 1.211-0.686 2.254 0 1.066 0.213 1.835 0.656 2.337 0.367 0.394 1.035 0.513 1.663 0.513h1.072l3.363-7.826h3.575l4.039 9.413v-9.413h3.633l4.194 6.931v-6.931h2.444v9.951zM0.539 14.402h4.077l0.919-2.21h2.058l0.917 2.21h8.021v-1.69l0.716 1.697h4.164l0.716-1.722v1.715h19.933l-0.009-3.628h0.386c0.27 0.009 0.349 0.034 0.349 0.479v3.15h10.31v-0.845c0.832 0.444 2.125 0.845 3.827 0.845h4.337l0.928-2.21h2.058l0.908 2.21h8.358v-2.1l1.266 2.1h6.698v-13.88h-6.628v1.639l-0.928-1.639h-6.801v1.639l-0.852-1.639h-9.187c-1.538 0-2.89 0.214-3.982 0.81v-0.81h-6.34v0.81c-0.695-0.615-1.642-0.81-2.695-0.81h-23.162l-1.554 3.585-1.596-3.585h-7.296v1.639l-0.801-1.639h-6.222l-2.889 6.599v7.281h0z"/>
</symbol><symbol viewBox="0 0 42 29" id="icon-logo-applepay">
<rect x="0.5" y="0.5" width="41" height="28" rx="3.5" fill="white" stroke="#F3F3F3"/>
<path fill-rule="evenodd" clip-rule="evenodd" d="M12.7281 10.8215C12.4226 11.1875 11.9338 11.4761 11.445 11.4349C11.3839 10.9401 11.6232 10.4144 11.9032 10.0897C12.2087 9.71343 12.7434 9.44542 13.1761 9.4248C13.2271 9.94021 13.0285 10.4453 12.7281 10.8215ZM13.171 11.5328C12.7404 11.5077 12.3475 11.6639 12.0301 11.79C11.8259 11.8712 11.653 11.94 11.5214 11.94C11.3737 11.94 11.1936 11.8676 10.9914 11.7862C10.7265 11.6797 10.4236 11.5579 10.1059 11.5637C9.37781 11.574 8.70063 11.9915 8.32894 12.6564C7.5652 13.9861 8.13037 15.955 8.86865 17.0373C9.23015 17.5733 9.66294 18.1609 10.2332 18.1403C10.4841 18.1307 10.6645 18.0532 10.8513 17.9729C11.0663 17.8806 11.2897 17.7846 11.6385 17.7846C11.9752 17.7846 12.1888 17.8781 12.3938 17.9678C12.5888 18.0531 12.776 18.135 13.0539 18.13C13.6446 18.1196 14.0163 17.5939 14.3778 17.0579C14.7679 16.4826 14.9393 15.9212 14.9653 15.836L14.9684 15.8261C14.9678 15.8255 14.9629 15.8232 14.9545 15.8193L14.9544 15.8193C14.824 15.7589 13.8272 15.2969 13.8177 14.0583C13.8081 13.0186 14.6083 12.4918 14.7343 12.4089C14.7419 12.4039 14.7471 12.4005 14.7494 12.3987C14.2403 11.6359 13.446 11.5534 13.171 11.5328ZM17.2596 18.0733V10.0381H20.2382C21.7758 10.0381 22.8502 11.1102 22.8502 12.677C22.8502 14.2438 21.7555 15.3262 20.1974 15.3262H18.4918V18.0733H17.2596ZM18.4918 11.0896H19.9123C20.9816 11.0896 21.5925 11.6668 21.5925 12.6821C21.5925 13.6975 20.9816 14.2799 19.9072 14.2799H18.4918V11.0896ZM26.9183 17.1095C26.5925 17.7383 25.8746 18.1351 25.1006 18.1351C23.955 18.1351 23.1557 17.4445 23.1557 16.4034C23.1557 15.3726 23.9296 14.7798 25.3603 14.6922L26.898 14.5994V14.1562C26.898 13.5016 26.4754 13.146 25.7218 13.146C25.1006 13.146 24.6475 13.4707 24.5558 13.9655H23.4459C23.4815 12.9244 24.4489 12.1667 25.7575 12.1667C27.1678 12.1667 28.0843 12.9141 28.0843 14.0737V18.0733H26.9438V17.1095H26.9183ZM25.4316 17.1816C24.7748 17.1816 24.3573 16.8621 24.3573 16.3724C24.3573 15.8673 24.7595 15.5736 25.5283 15.5272L26.898 15.4396V15.8931C26.898 16.6456 26.2666 17.1816 25.4316 17.1816ZM31.8674 18.3877C31.3735 19.7947 30.8083 20.2586 29.6067 20.2586C29.5151 20.2586 29.2096 20.2483 29.1383 20.2276V19.2638C29.2147 19.2742 29.4031 19.2845 29.4998 19.2845C30.0446 19.2845 30.3501 19.0525 30.5385 18.4495L30.6505 18.0939L28.5629 12.2441H29.8511L31.3022 16.9909H31.3277L32.7788 12.2441H34.0313L31.8674 18.3877Z" fill="black"/>
</symbol><symbol viewBox="0 0 42 29" id="icon-logo-discover">
<rect x="0.5" y="0.5" width="41" height="28" rx="3.5" fill="white" stroke="#F3F3F3"/>
<path d="M27.7603 15.7646L29.3853 11.7178H30.6577L28.0581 17.8965H27.4272L24.8735 11.7178H26.1558L27.7603 15.7646ZM11.4634 11.6191C12.1229 11.6191 12.7264 11.8444 13.231 12.2861L12.6177 13.0918C12.3121 12.7489 12.0227 12.6036 11.6714 12.6035C11.1656 12.6035 10.7964 12.8922 10.7964 13.2715C10.7965 13.5968 11.0037 13.7686 11.7075 14.0293C13.0424 14.5182 13.438 14.952 13.438 15.9092C13.4378 17.0748 12.5828 17.8865 11.3638 17.8867C10.4708 17.8867 9.82043 17.5349 9.27979 16.7402L10.0386 16.0088C10.3086 16.5318 10.7593 16.8124 11.3188 16.8125C11.8425 16.8125 12.23 16.4509 12.23 15.9629C12.23 15.71 12.1128 15.4932 11.8784 15.3398C11.7606 15.2672 11.5264 15.1585 11.0669 14.9961C9.96501 14.5991 9.58745 14.1744 9.5874 13.3447C9.5874 12.359 10.3989 11.6192 11.4634 11.6191ZM17.0122 11.582C17.5171 11.5821 17.9406 11.6907 18.4556 11.9521V13.334C17.9677 12.8563 17.5436 12.6562 16.9839 12.6562C15.8831 12.6564 15.0181 13.5693 15.0181 14.7256C15.0182 15.9453 15.8568 16.8037 17.0386 16.8037C17.5706 16.8037 17.9865 16.6136 18.4556 16.1436V17.5264C17.9221 17.7779 17.489 17.8779 16.9839 17.8779C15.1971 17.8778 13.8082 16.5047 13.8081 14.7344C13.8081 12.983 15.2343 11.582 17.0122 11.582ZM8.83838 17.7422H7.66455V11.7178H8.83838V17.7422ZM34.5161 12.7393H32.3608V14.0762H34.437V15.0957H32.3608V16.7217H34.5161V17.7422H31.188V11.7178H34.5161V12.7393ZM3.89502 11.7188C5.79821 11.7188 7.12451 12.9567 7.12451 14.7344C7.12448 15.6206 6.71888 16.4774 6.03271 17.0459C5.45517 17.5262 4.79722 17.7412 3.88623 17.7412H2.17236V11.7188H3.89502ZM37.0337 11.7178C38.3868 11.7178 39.1624 12.3686 39.1626 13.4961C39.1626 14.4183 38.6763 15.0242 37.7925 15.2041L39.686 17.7412H38.2437L36.6187 15.3223H36.4653V17.7412H35.2935V11.7178H37.0337ZM3.34521 16.7217H3.65967C4.41789 16.7217 4.89746 16.5766 5.26611 16.2432C5.67183 15.8815 5.91548 15.3038 5.91553 14.7256C5.91553 14.1487 5.67195 13.5872 5.26611 13.2256C4.87866 12.8743 4.41782 12.7383 3.65967 12.7383H3.34521V16.7217ZM36.4653 12.667V14.4912H36.8091C37.5584 14.4911 37.9556 14.165 37.9556 13.5596C37.9555 12.9736 37.5583 12.6671 36.8276 12.667H36.4653Z" fill="#1D1D1B"/>
<path fill-rule="evenodd" clip-rule="evenodd" d="M24.7356 16.4768C25.6882 14.9856 25.2531 13.0046 23.7639 12.0511C22.2747 11.0976 20.2957 11.5329 19.3432 13.0241C18.3909 14.5148 18.8261 16.4965 20.3153 17.45C21.8045 18.4035 23.7834 17.9676 24.7356 16.4768Z" fill="url(#paint0_linear_204_2479)"/>
</symbol><symbol viewBox="0 0 42 29" id="icon-logo-googlepay">
<rect x="0.5" y="0.5" width="41" height="28" rx="3.5" fill="white" stroke="#F3F3F3"/>
<path fill-rule="evenodd" clip-rule="evenodd" d="M20.2161 17.4856V14.215V14.2144H21.9832C22.7118 14.2148 23.3241 13.9856 23.8202 13.5267C24.3215 13.0913 24.6017 12.4652 24.5875 11.8125C24.5974 11.1635 24.3176 10.542 23.8202 10.108C23.3285 9.64661 22.6672 9.39489 21.9832 9.40875H19.1465V17.4856H20.2161ZM20.2161 13.2226V10.4031V10.4025H22.0098C22.4096 10.3916 22.795 10.5476 23.0681 10.831C23.3429 11.0902 23.498 11.4462 23.498 11.818C23.498 12.1898 23.3429 12.5458 23.0681 12.805C22.7916 13.0824 22.4075 13.234 22.0098 13.2226H20.2161Z" fill="#5F6368"/>
<path fill-rule="evenodd" clip-rule="evenodd" d="M28.9244 12.3941C28.4669 11.9842 27.8428 11.7793 27.0522 11.7793C26.0367 11.7793 25.2698 12.1402 24.7516 12.862L25.6936 13.4375C26.0418 12.9485 26.5146 12.7041 27.112 12.7041C27.493 12.6997 27.8616 12.8348 28.1444 13.0824C28.4264 13.3085 28.5887 13.6457 28.5862 14.0007V14.2379C28.1752 14.0123 27.6521 13.8995 27.017 13.8995C26.273 13.9004 25.6781 14.0697 25.2326 14.4073C24.787 14.745 24.5643 15.1998 24.5643 15.7716C24.5545 16.2923 24.7874 16.7895 25.198 17.125C25.6206 17.4859 26.1456 17.6663 26.7732 17.6663C27.5084 17.6663 28.0975 17.3505 28.5404 16.719H28.5869V17.4859H29.61V14.08C29.6104 13.3659 29.3819 12.804 28.9244 12.3941ZM26.0232 16.4709C25.7992 16.3142 25.667 16.0621 25.6685 15.7942C25.6685 15.4932 25.8139 15.2425 26.1069 15.0363C26.397 14.8331 26.7593 14.7315 27.1938 14.7315C27.7904 14.7315 28.2554 14.8604 28.5889 15.1182C28.5889 15.5538 28.4118 15.9334 28.0574 16.2569C27.7383 16.5665 27.3057 16.7408 26.8543 16.7415C26.5534 16.747 26.2598 16.6514 26.0232 16.4709Z" fill="#5F6368"/>
<path fill-rule="evenodd" clip-rule="evenodd" d="M35.4829 11.96L31.9114 19.9221H30.8073L32.1326 17.1361L29.7842 11.96H30.9468L32.6442 15.9297H32.6674L34.3183 11.96H35.4829Z" fill="#5F6368"/>
<path fill-rule="evenodd" clip-rule="evenodd" d="M15.8936 13.5099C15.894 13.1937 15.8664 12.878 15.8112 12.5664H11.3003V14.3535H13.8839C13.7771 14.9302 13.432 15.4396 12.9286 15.7635V16.9235H14.4706C15.3734 16.116 15.8936 14.9219 15.8936 13.5099Z" fill="#4285F4"/>
<path fill-rule="evenodd" clip-rule="evenodd" d="M11.3006 18.0449C12.5914 18.0449 13.6783 17.6338 14.4709 16.9249L12.9289 15.7649C12.4997 16.0471 11.947 16.2083 11.3006 16.2083C10.053 16.2083 8.99399 15.3924 8.61531 14.293H7.02686V15.4884C7.83879 17.0557 9.49239 18.0448 11.3006 18.0449Z" fill="#34A853"/>
<path fill-rule="evenodd" clip-rule="evenodd" d="M8.61537 14.2928C8.41517 13.7167 8.41517 13.0928 8.61537 12.5167V11.3213H7.02691C6.3478 12.6322 6.3478 14.1774 7.02691 15.4883L8.61537 14.2928Z" fill="#FBBC04"/>
<path fill-rule="evenodd" clip-rule="evenodd" d="M11.3006 10.6006C11.9827 10.5898 12.6419 10.8398 13.1355 11.2966L14.5008 9.97231C13.6351 9.18356 12.4882 8.75052 11.3006 8.76398C9.49239 8.76406 7.83879 9.75323 7.02686 11.3205L8.61531 12.5159C8.99399 11.4165 10.053 10.6006 11.3006 10.6006Z" fill="#EA4335"/>
</symbol><symbol viewBox="0 0 143 32" id="icon-logo-klarna">

<path d="M25.227 0h-7.058c0 5.792-2.659 11.078-7.28 14.56l-2.785 2.089 10.825 14.75h8.894l-9.97-13.579c4.716-4.684 7.375-11.015 7.375-17.82z"/>
<path d="M0 0h7.217v31.399h-7.217v-31.399z"/>
<path d="M29.911 0h6.805v31.399h-6.805v-31.399z"/>
<path d="M96.411 9.084c-2.595 0-5.064 0.791-6.71 3.039v-2.437h-6.457v21.713h6.552v-11.395c0-3.292 2.216-4.906 4.874-4.906 2.849 0 4.495 1.709 4.495 4.874v11.458h6.489v-13.832c0-5.064-4.020-8.514-9.242-8.514z"/>
<path d="M57.29 9.685v1.393c-1.836-1.266-4.051-1.994-6.457-1.994-6.33 0-11.458 5.128-11.458 11.458s5.128 11.458 11.458 11.458c2.406 0 4.621-0.728 6.457-1.994v1.393h6.489v-21.713h-6.489zM51.371 26.113c-3.26 0-5.887-2.5-5.887-5.571s2.627-5.571 5.887-5.571c3.26 0 5.887 2.5 5.887 5.571s-2.627 5.571-5.887 5.571z"/>
<path d="M73.844 12.502v-2.817h-6.647v21.713h6.679v-10.129c0-3.418 3.703-5.254 6.267-5.254 0.032 0 0.063 0 0.063 0v-6.33c-2.627 0-5.064 1.139-6.362 2.817z"/>
<path d="M125.848 9.685v1.393c-1.836-1.266-4.051-1.994-6.457-1.994-6.33 0-11.458 5.128-11.458 11.458s5.128 11.458 11.458 11.458c2.406 0 4.621-0.728 6.457-1.994v1.393h6.489v-21.713h-6.489zM119.929 26.113c-3.26 0-5.887-2.5-5.887-5.571s2.627-5.571 5.887-5.571c3.26 0 5.887 2.5 5.887 5.571 0.032 3.070-2.627 5.571-5.887 5.571z"/>
<path d="M137.369 10.319c0-0.317-0.222-0.506-0.57-0.506h-0.601v1.646h0.285v-0.601h0.317l0.253 0.601h0.317l-0.285-0.665c0.19-0.095 0.285-0.253 0.285-0.475zM136.799 10.572h-0.317v-0.506h0.317c0.19 0 0.285 0.095 0.285 0.253s-0.063 0.253-0.285 0.253z"/>
<path d="M136.704 9.116c-0.855 0-1.551 0.696-1.551 1.551 0.032 0.855 0.696 1.551 1.551 1.551s1.551-0.696 1.551-1.551c0-0.855-0.696-1.551-1.551-1.551zM136.704 11.933c-0.696 0-1.234-0.57-1.234-1.266s0.57-1.266 1.234-1.266c0.696 0 1.234 0.57 1.234 1.266s-0.57 1.266-1.234 1.266z"/>
<path d="M139.268 23.707c-2.247 0-4.083 1.836-4.083 4.083s1.836 4.083 4.083 4.083c2.247 0 4.083-1.836 4.083-4.083 0-2.279-1.836-4.083-4.083-4.083z"/>
</symbol><symbol viewBox="0 0 42 29" id="icon-logo-mastercard">
<rect x="0.5" y="0.5" width="41" height="28" rx="3.5" fill="white" stroke="#F3F3F3"/>
<path fill-rule="evenodd" clip-rule="evenodd" d="M15.3872 22.3955V23.4662V24.537H14.9184V24.277C14.7698 24.4698 14.5442 24.5908 14.2375 24.5908C13.6331 24.5908 13.1592 24.1206 13.1592 23.4662C13.1592 22.8124 13.6331 22.3417 14.2375 22.3417C14.5442 22.3417 14.7698 22.4627 14.9184 22.6555V22.3955H15.3872ZM14.2959 22.7806C13.8901 22.7806 13.6418 23.0898 13.6418 23.4662C13.6418 23.8426 13.8901 24.1519 14.2959 24.1519C14.6836 24.1519 14.9453 23.856 14.9453 23.4662C14.9453 23.0765 14.6836 22.7806 14.2959 22.7806ZM31.2269 23.4662C31.2269 23.0898 31.4752 22.7806 31.8809 22.7806C32.2691 22.7806 32.5303 23.0765 32.5303 23.4662C32.5303 23.856 32.2691 24.1519 31.8809 24.1519C31.4752 24.1519 31.2269 23.8426 31.2269 23.4662ZM32.9727 21.5355V23.4662V24.537H32.5035V24.277C32.3548 24.4698 32.1292 24.5908 31.8226 24.5908C31.2181 24.5908 30.7442 24.1206 30.7442 23.4662C30.7442 22.8124 31.2181 22.3417 31.8226 22.3417C32.1292 22.3417 32.3548 22.4627 32.5035 22.6555V21.5355H32.9727ZM21.2055 22.7586C21.5075 22.7586 21.7016 22.9468 21.7511 23.278H20.6325C20.6826 22.9688 20.8715 22.7586 21.2055 22.7586ZM20.141 23.4662C20.141 22.7986 20.5829 22.3417 21.2148 22.3417C21.8188 22.3417 22.2338 22.7986 22.2384 23.4662C22.2384 23.5288 22.2338 23.5873 22.2291 23.6452H20.6283C20.696 24.0308 20.9711 24.1698 21.2731 24.1698C21.4894 24.1698 21.7196 24.0888 21.9003 23.9457L22.13 24.2908C21.8683 24.5103 21.571 24.5908 21.2463 24.5908C20.601 24.5908 20.141 24.1472 20.141 23.4662ZM26.8746 23.4662C26.8746 23.0898 27.1229 22.7806 27.5287 22.7806C27.9164 22.7806 28.1781 23.0765 28.1781 23.4662C28.1781 23.856 27.9164 24.1519 27.5287 24.1519C27.1229 24.1519 26.8746 23.8426 26.8746 23.4662ZM28.62 22.3955V23.4662V24.537H28.1513V24.277C28.0021 24.4698 27.777 24.5908 27.4704 24.5908C26.8659 24.5908 26.392 24.1206 26.392 23.4662C26.392 22.8124 26.8659 22.3417 27.4704 22.3417C27.777 22.3417 28.0021 22.4627 28.1513 22.6555V22.3955H28.62ZM24.2274 23.4662C24.2274 24.116 24.6827 24.5908 25.3776 24.5908C25.7023 24.5908 25.9186 24.519 26.1529 24.3354L25.9279 23.959C25.7518 24.0847 25.567 24.1519 25.3636 24.1519C24.9894 24.1472 24.7142 23.8785 24.7142 23.4662C24.7142 23.054 24.9894 22.7852 25.3636 22.7806C25.567 22.7806 25.7518 22.8478 25.9279 22.9734L26.1529 22.597C25.9186 22.4135 25.7023 22.3417 25.3776 22.3417C24.6827 22.3417 24.2274 22.8165 24.2274 23.4662ZM29.7024 22.6555C29.8242 22.4673 30.0003 22.3417 30.2708 22.3417C30.3657 22.3417 30.501 22.3596 30.6048 22.4001L30.4602 22.8391C30.3611 22.7986 30.262 22.7852 30.167 22.7852C29.8604 22.7852 29.7071 22.9822 29.7071 23.3365V24.537H29.2378V22.3955H29.7024V22.6555ZM17.7055 22.5658C17.4799 22.4181 17.1691 22.3417 16.8264 22.3417C16.2802 22.3417 15.9286 22.6017 15.9286 23.0273C15.9286 23.3765 16.1904 23.5919 16.6725 23.6591L16.894 23.6903C17.1511 23.7262 17.2724 23.7934 17.2724 23.9144C17.2724 24.0801 17.101 24.1744 16.7809 24.1744C16.4562 24.1744 16.2219 24.0714 16.0639 23.9503L15.843 24.3129C16.1 24.5011 16.4247 24.5908 16.7763 24.5908C17.3988 24.5908 17.7597 24.2995 17.7597 23.8919C17.7597 23.5155 17.4758 23.3186 17.0065 23.2514L16.7856 23.2196C16.5827 23.1929 16.4201 23.1529 16.4201 23.0093C16.4201 22.8524 16.5734 22.7586 16.8305 22.7586C17.1056 22.7586 17.372 22.8617 17.5026 22.9422L17.7055 22.5658ZM23.1857 22.6555C23.307 22.4673 23.4831 22.3417 23.7536 22.3417C23.8485 22.3417 23.9838 22.3596 24.0875 22.4001L23.943 22.8391C23.8439 22.7986 23.7448 22.7852 23.6498 22.7852C23.3432 22.7852 23.1898 22.9822 23.1898 23.3365V24.537H22.7211V22.3955H23.1857V22.6555ZM19.7533 22.3955H18.9867V21.7458H18.5128V22.3955H18.0756V22.8211H18.5128V23.798C18.5128 24.2949 18.7069 24.5908 19.2613 24.5908C19.4647 24.5908 19.6991 24.5283 19.8477 24.4252L19.7125 24.0262C19.5726 24.1067 19.4193 24.1472 19.2975 24.1472C19.0631 24.1472 18.9867 24.0037 18.9867 23.7888V22.8211H19.7533V22.3955ZM12.7446 23.1929V24.537H12.2707V23.3452C12.2707 22.9822 12.1174 22.7806 11.7973 22.7806C11.4861 22.7806 11.2698 22.9781 11.2698 23.3498V24.537H10.7959V23.3452C10.7959 22.9822 10.6384 22.7806 10.3272 22.7806C10.0066 22.7806 9.79906 22.9781 9.79906 23.3498V24.537H9.32568V22.3955H9.79493V22.6596C9.97096 22.4089 10.196 22.3417 10.4263 22.3417C10.7556 22.3417 10.99 22.4853 11.1386 22.7227C11.3374 22.4222 11.6213 22.3371 11.8965 22.3417C12.4199 22.3463 12.7446 22.6868 12.7446 23.1929Z" fill="#231F20"/>
<path d="M24.654 18.7568H17.5498V6.07422H24.654V18.7568Z" fill="#FF5F00"/>
<path d="M18.0007 12.4156C18.0007 9.84287 19.2133 7.55116 21.1016 6.07429C19.7207 4.99433 17.9779 4.34974 16.0839 4.34974C11.6 4.34974 7.96533 7.96089 7.96533 12.4156C7.96533 16.8703 11.6 20.4814 16.0839 20.4814C17.9779 20.4814 19.7207 19.8369 21.1016 18.7569C19.2133 17.28 18.0007 14.9883 18.0007 12.4156Z" fill="#EB001B"/>
<path d="M34.2383 12.4156C34.2383 16.8703 30.6036 20.4814 26.1197 20.4814C24.2257 20.4814 22.483 19.8369 21.1016 18.7569C22.9904 17.28 24.203 14.9883 24.203 12.4156C24.203 9.84287 22.9904 7.55116 21.1016 6.07429C22.483 4.99433 24.2257 4.34974 26.1197 4.34974C30.6036 4.34974 34.2383 7.96089 34.2383 12.4156Z" fill="#F79E1B"/>
</symbol><symbol viewBox="0 0 114 32" id="icon-logo-paypal">

<path fill="#0079c1" d="M77.389 9.333c-0.478 3.136-2.872 3.136-5.189 3.136h-1.318l0.925-5.855c0.055-0.354 0.36-0.614 0.719-0.614h0.605c1.577 0 3.066 0 3.834 0.898 0.46 0.537 0.598 1.335 0.425 2.435zM76.381 1.15h-8.736c-0.598 0-1.106 0.435-1.2 1.025l-3.532 22.402c-0.070 0.442 0.273 0.841 0.719 0.841h4.483c0.418 0 0.774-0.304 0.839-0.716l1.002-6.352c0.092-0.59 0.602-1.025 1.198-1.025h2.764c5.755 0 9.077-2.784 9.944-8.305 0.391-2.413 0.016-4.31-1.114-5.638-1.242-1.46-3.445-2.233-6.368-2.233z"/>
<path fill="#00457c" d="M15.076 9.333c-0.478 3.136-2.872 3.136-5.189 3.136h-1.318l0.925-5.855c0.055-0.354 0.36-0.614 0.719-0.614h0.605c1.577 0 3.066 0 3.834 0.898 0.46 0.537 0.598 1.335 0.425 2.435zM14.068 1.15h-8.736c-0.598 0-1.106 0.435-1.2 1.025l-3.532 22.402c-0.070 0.442 0.271 0.841 0.719 0.841h4.172c0.597 0 1.105-0.435 1.199-1.024l0.954-6.044c0.092-0.59 0.601-1.025 1.198-1.025h2.764c5.755 0 9.077-2.784 9.944-8.305 0.391-2.413 0.016-4.31-1.114-5.638-1.242-1.46-3.445-2.233-6.368-2.233z"/>
<path fill="#00457c" d="M34.351 17.375c-0.404 2.39-2.301 3.995-4.722 3.995-1.213 0-2.185-0.391-2.809-1.13-0.618-0.732-0.852-1.776-0.656-2.938 0.376-2.37 2.305-4.026 4.688-4.026 1.188 0 2.153 0.394 2.789 1.14 0.641 0.751 0.893 1.801 0.71 2.958zM40.181 9.232h-4.183c-0.358 0-0.663 0.26-0.72 0.615l-0.184 1.169-0.292-0.424c-0.907-1.315-2.926-1.755-4.943-1.755-4.622 0-8.57 3.503-9.338 8.415-0.4 2.451 0.168 4.793 1.558 6.427 1.276 1.502 3.098 2.127 5.268 2.127 3.726 0 5.792-2.393 5.792-2.393l-0.187 1.162c-0.070 0.442 0.271 0.841 0.72 0.841h3.767c0.598 0 1.106-0.434 1.2-1.024l2.262-14.321c0.070-0.442-0.273-0.841-0.72-0.841z"/>
<path fill="#0079c1" d="M96.663 17.375c-0.404 2.39-2.301 3.995-4.722 3.995-1.213 0-2.185-0.391-2.809-1.13-0.62-0.732-0.852-1.776-0.656-2.938 0.376-2.37 2.305-4.026 4.688-4.026 1.188 0 2.153 0.394 2.789 1.14 0.641 0.751 0.893 1.801 0.71 2.958zM102.494 9.232h-4.183c-0.358 0-0.663 0.26-0.72 0.615l-0.184 1.169-0.293-0.424c-0.906-1.315-2.925-1.755-4.942-1.755-4.622 0-8.57 3.503-9.338 8.415-0.4 2.451 0.168 4.793 1.558 6.427 1.276 1.502 3.098 2.127 5.268 2.127 3.726 0 5.792-2.393 5.792-2.393l-0.187 1.162c-0.070 0.442 0.271 0.841 0.72 0.841h3.767c0.598 0 1.106-0.434 1.2-1.024l2.262-14.321c0.070-0.442-0.273-0.841-0.72-0.841z"/>
<path fill="#00457c" d="M62.462 9.232h-4.205c-0.402 0-0.778 0.199-1.004 0.533l-5.801 8.543-2.458-8.209c-0.154-0.514-0.627-0.866-1.164-0.866h-4.133c-0.499 0-0.85 0.491-0.689 0.963l4.63 13.591-4.355 6.145c-0.341 0.482 0.003 1.149 0.595 1.149h4.2c0.398 0 0.77-0.195 0.998-0.522l13.983-20.183c0.335-0.483-0.010-1.143-0.598-1.143z"/>
<path fill="#0079c1" d="M107.424 1.766l-3.585 22.812c-0.070 0.442 0.271 0.841 0.719 0.841h3.607c0.597 0 1.106-0.435 1.198-1.025l3.536-22.402c0.070-0.442-0.271-0.841-0.72-0.841h-4.035c-0.359 0-0.665 0.26-0.72 0.615z"/>
</symbol><symbol viewBox="0 0 26 26" id="icon-logo-small"><path d="M17.647 12.125h-3.323c-.11 0-.197.087-.197.194v2.327c0 .107.087.193.197.193h3.323c.95 0 1.542-.524 1.542-1.357 0-.795-.594-1.358-1.543-1.358zm-2.62-2.423h3.233c2.51 0 3.988 1.57 3.988 3.296 0 1.35-.915 2.345-1.885 2.78-.155.07-.15.283.01.346 1.128.443 1.94 1.623 1.94 3 0 1.96-1.305 3.512-3.837 3.512h-6.96c-.11 0-.197-.087-.197-.194v-9.03L.237 24.49c-.51.508-.148 1.378.57 1.378h24.254c.446 0 .808-.362.808-.808V.81c0-.72-.87-1.08-1.38-.572L15.03 9.702zm-.703 7.562c-.11 0-.197.087-.197.194v2.56c0 .106.087.193.197.193h3.44c1.05 0 1.682-.542 1.682-1.472 0-.815-.593-1.474-1.68-1.474h-3.442z" fill="#000" fill-rule="evenodd"/></symbol><symbol viewBox="0 0 42 29" id="icon-logo-visa">
<rect x="0.5" y="0.5" width="41" height="28" rx="3.5" fill="white" stroke="#F3F3F3"/>
<path d="M18.6478 19.8888H15.8516L17.6005 9.73828H20.3966L18.6478 19.8888Z" fill="#15195A"/>
<path d="M28.7845 9.98684C28.2329 9.78145 27.3581 9.55469 26.2765 9.55469C23.5151 9.55469 21.5705 10.9368 21.5586 12.9128C21.5357 14.3707 22.9508 15.1805 24.0093 15.6666C25.0911 16.1633 25.4588 16.4876 25.4588 16.9303C25.4478 17.6103 24.5847 17.9238 23.7796 17.9238C22.6632 17.9238 22.065 17.7622 21.156 17.3839L20.7878 17.2217L20.3965 19.5003C21.0523 19.7807 22.2606 20.0296 23.5151 20.0405C26.4491 20.0405 28.3592 18.6797 28.3819 16.574C28.393 15.4185 27.6458 14.5331 26.0347 13.8096C25.0567 13.3451 24.4577 13.032 24.4577 12.5568C24.4692 12.1248 24.9643 11.6823 26.0683 11.6823C26.9774 11.6606 27.6453 11.8657 28.1513 12.0709L28.4042 12.1787L28.7845 9.98684Z" fill="#15195A"/>
<path fill-rule="evenodd" clip-rule="evenodd" d="M33.7898 9.73828H35.9527L38.2085 19.8886H35.6195C35.6195 19.8886 35.3661 18.7224 35.2858 18.366H31.6957C31.5919 18.6358 31.1088 19.8886 31.1088 19.8886H28.1748L32.3283 10.5805C32.616 9.9217 33.1228 9.73828 33.7898 9.73828ZM33.6175 13.4528C33.6175 13.4528 32.7314 15.7097 32.5011 16.2928H34.8253C34.7103 15.7853 34.1808 13.3556 34.1808 13.3556L33.9854 12.481C33.9031 12.7062 33.7841 13.0159 33.7038 13.2247C33.6494 13.3663 33.6128 13.4616 33.6175 13.4528Z" fill="#15195A"/>
<path d="M8.23486 9.73828C8.84466 9.75967 9.33948 9.94351 9.50049 10.5918L10.4761 15.2471C10.477 15.25 10.4781 15.2529 10.479 15.2559L10.7778 16.6602L13.5161 9.73828H16.4731L12.0776 19.8779H9.12061L6.62842 11.0576C5.76858 10.5858 4.78708 10.2067 3.68994 9.94336L3.73584 9.73828H8.23486Z" fill="#15195A"/>
</symbol><symbol viewBox="0 0 27 27" id="icon-out-of-stoke-icon">
<path d="M13.5 23.9545C19.2709 23.9545 23.9545 19.2709 23.9545 13.5C23.9545 7.72905 19.2709 3.04541 13.5 3.04541C7.72905 3.04541 3.04541 7.72905 3.04541 13.5C3.04541 19.2709 7.72905 23.9545 13.5 23.9545Z" stroke-width="2" stroke-miterlimit="10" stroke-linecap="round" stroke-linejoin="round"/>
<path d="M20.714 6.18188L6.07764 20.8182" stroke-width="2" stroke-miterlimit="10" stroke-linecap="round" stroke-linejoin="round"/>
</symbol><symbol viewBox="0 0 34 32" id="icon-pinterest">
<path d="M1.356 15.647c0 6.24 3.781 11.6 9.192 13.957-0.043-1.064-0.008-2.341 0.267-3.499 0.295-1.237 1.976-8.303 1.976-8.303s-0.491-0.973-0.491-2.411c0-2.258 1.319-3.945 2.962-3.945 1.397 0 2.071 1.041 2.071 2.288 0 1.393-0.895 3.477-1.356 5.408-0.385 1.616 0.817 2.935 2.424 2.935 2.909 0 4.869-3.708 4.869-8.101 0-3.34-2.267-5.839-6.39-5.839-4.658 0-7.56 3.447-7.56 7.297 0 1.328 0.394 2.264 1.012 2.989 0.284 0.333 0.324 0.467 0.221 0.849-0.074 0.28-0.243 0.955-0.313 1.223-0.102 0.386-0.417 0.524-0.769 0.381-2.145-0.869-3.145-3.201-3.145-5.822 0-4.329 3.679-9.519 10.975-9.519 5.863 0 9.721 4.21 9.721 8.729 0 5.978-3.349 10.443-8.285 10.443-1.658 0-3.217-0.889-3.751-1.899 0 0-0.892 3.511-1.080 4.189-0.325 1.175-0.963 2.349-1.546 3.264 1.381 0.405 2.84 0.625 4.352 0.625 8.48 0 15.355-6.822 15.355-15.238s-6.876-15.238-15.355-15.238c-8.48 0-15.356 6.822-15.356 15.238z"/>
</symbol><symbol viewBox="0 0 23 23" id="icon-pre-order-icon">
<path d="M21.9163 11.4999C21.9163 17.2499 17.2497 21.9166 11.4997 21.9166C5.74967 21.9166 1.08301 17.2499 1.08301 11.4999C1.08301 5.74992 5.74967 1.08325 11.4997 1.08325C17.2497 1.08325 21.9163 5.74992 21.9163 11.4999Z" stroke-width="2" stroke-linecap="round" stroke-linejoin="round"/>
<path d="M15.3643 14.8126L12.1351 12.8855C11.5726 12.5522 11.1143 11.7501 11.1143 11.0938V6.823" stroke-width="2" stroke-linecap="round" stroke-linejoin="round"/>
</symbol><symbol viewBox="0 0 26 28" id="icon-print">
<path d="M0 21.5v-6.5q0-1.234 0.883-2.117t2.117-0.883h1v-8.5q0-0.625 0.438-1.062t1.062-0.438h10.5q0.625 0 1.375 0.313t1.188 0.75l2.375 2.375q0.438 0.438 0.75 1.188t0.313 1.375v4h1q1.234 0 2.117 0.883t0.883 2.117v6.5q0 0.203-0.148 0.352t-0.352 0.148h-3.5v2.5q0 0.625-0.438 1.062t-1.062 0.438h-15q-0.625 0-1.062-0.438t-0.438-1.062v-2.5h-3.5q-0.203 0-0.352-0.148t-0.148-0.352zM6 24h14v-4h-14v4zM6 14h14v-6h-2.5q-0.625 0-1.062-0.438t-0.438-1.062v-2.5h-10v10zM22 15q0 0.406 0.297 0.703t0.703 0.297 0.703-0.297 0.297-0.703-0.297-0.703-0.703-0.297-0.703 0.297-0.297 0.703z"/>
</symbol><symbol viewBox="0 0 24 24" id="icon-product-page-comapre">
<path d="M20.5 14.99L15.49 20.01" stroke-width="1.5" stroke-miterlimit="10" stroke-linecap="round" stroke-linejoin="round"/>
<path d="M3.5 14.99H20.5" stroke-width="1.5" stroke-miterlimit="10" stroke-linecap="round" stroke-linejoin="round"/>
<path d="M3.5 9.00999L8.51 3.98999" stroke-width="1.5" stroke-miterlimit="10" stroke-linecap="round" stroke-linejoin="round"/>
<path d="M20.5 9.01001H3.5" stroke-width="1.5" stroke-miterlimit="10" stroke-linecap="round" stroke-linejoin="round"/>
</symbol><symbol viewBox="0 0 23 22" id="icon-quickview">
<path d="M7.04779 21.8625C7.46196 21.8567 7.79298 21.5162 7.78715 21.102C7.78131 20.6878 7.44082 20.3568 7.02665 20.3627L7.04779 21.8625ZM1.68449 20.4383C1.27032 20.4442 0.939297 20.7847 0.945134 21.1988C0.950971 21.613 1.29145 21.944 1.70563 21.9382L1.68449 20.4383ZM0.944899 21.1988C0.950736 21.613 1.29122 21.944 1.70539 21.9382C2.11956 21.9323 2.45059 21.5918 2.44475 21.1776L0.944899 21.1988ZM2.3693 15.8234C2.36346 15.4093 2.02298 15.0783 1.6088 15.0841C1.19463 15.09 0.86361 15.4305 0.869447 15.8447L2.3693 15.8234ZM1.15672 20.6661C0.868319 20.9634 0.875544 21.4382 1.17286 21.7266C1.47017 22.015 1.94499 22.0077 2.2334 21.7104L1.15672 20.6661ZM9.28765 14.4377C9.57606 14.1404 9.56883 13.6655 9.27152 13.3772C8.9742 13.0888 8.49938 13.096 8.21098 13.3934L9.28765 14.4377ZM20.7723 6.18933C20.7782 6.60351 21.1187 6.93451 21.5328 6.92864C21.947 6.92278 22.278 6.58227 22.2722 6.1681L20.7723 6.18933ZM22.1967 0.813922C22.1909 0.39975 21.8504 0.0687493 21.4362 0.0746122C21.0221 0.0804751 20.691 0.420981 20.6969 0.835154L22.1967 0.813922ZM21.4577 1.57458C21.8719 1.56871 22.2029 1.22821 22.1971 0.814035C22.1912 0.399863 21.8508 0.0688626 21.4366 0.0747256L21.4577 1.57458ZM16.0944 0.150348C15.6803 0.156211 15.3492 0.496717 15.3551 0.910889C15.3609 1.32506 15.7014 1.65606 16.1156 1.6502L16.0944 0.150348ZM21.9854 1.34684C22.2738 1.04951 22.2665 0.574686 21.9692 0.286301C21.6719 -0.00208402 21.1971 0.00517153 20.9087 0.302506L21.9854 1.34684ZM13.8544 7.57521C13.566 7.87254 13.5733 8.34736 13.8706 8.63575C14.1679 8.92413 14.6427 8.91688 14.9311 8.61954L13.8544 7.57521ZM16.3774 20.2303C15.9632 20.2362 15.6322 20.5767 15.638 20.9909C15.6439 21.405 15.9844 21.736 16.3985 21.7302L16.3774 20.2303ZM21.7407 21.6545C22.1549 21.6487 22.4859 21.3082 22.4801 20.894C22.4742 20.4798 22.1337 20.1488 21.7196 20.1547L21.7407 21.6545ZM20.9799 20.9152C20.9857 21.3294 21.3262 21.6604 21.7404 21.6545C22.1545 21.6487 22.4855 21.3082 22.4797 20.894L20.9799 20.9152ZM22.4043 15.5398C22.3984 15.1257 22.0579 14.7947 21.6438 14.8005C21.2296 14.8064 20.8986 15.1469 20.9044 15.5611L22.4043 15.5398ZM21.2066 21.4418C21.5033 21.7309 21.9781 21.7247 22.2672 21.428C22.5562 21.1313 22.5501 20.6565 22.2534 20.3674L21.2066 21.4418ZM14.997 13.2973C14.7004 13.0082 14.2255 13.0144 13.9365 13.3111C13.6474 13.6078 13.6535 14.0826 13.9502 14.3717L14.997 13.2973ZM0.737377 6.47294C0.743214 6.88712 1.0837 7.21812 1.49787 7.21225C1.91204 7.20639 2.24306 6.86588 2.23723 6.45171L0.737377 6.47294ZM2.16177 1.09753C2.15594 0.683361 1.81545 0.35236 1.40128 0.358223C0.987109 0.364086 0.656088 0.704592 0.661924 1.11876L2.16177 1.09753ZM1.40152 0.358338C0.987345 0.364201 0.656324 0.704707 0.662161 1.11888C0.667997 1.53305 1.00848 1.86405 1.42265 1.85819L1.40152 0.358338ZM6.76482 1.78257C7.17899 1.7767 7.51001 1.4362 7.50417 1.02203C7.49834 0.607853 7.15785 0.276852 6.74368 0.282715L6.76482 1.78257ZM1.93549 0.571086C1.63883 0.282034 1.16399 0.288222 0.874923 0.584907C0.585853 0.881593 0.592012 1.35643 0.888678 1.64548L1.93549 0.571086ZM8.14506 8.71561C8.44173 9.00466 8.91656 8.99847 9.20563 8.70178C9.4947 8.4051 9.48854 7.93026 9.19188 7.64121L8.14506 8.71561ZM7.02665 20.3627L1.68449 20.4383L1.70563 21.9382L7.04779 21.8625L7.02665 20.3627ZM2.44475 21.1776L2.3693 15.8234L0.869447 15.8447L0.944899 21.1988L2.44475 21.1776ZM2.2334 21.7104L9.28765 14.4377L8.21098 13.3934L1.15672 20.6661L2.2334 21.7104ZM22.2722 6.1681L22.1967 0.813922L20.6969 0.835154L20.7723 6.18933L22.2722 6.1681ZM21.4366 0.0747256L16.0944 0.150348L16.1156 1.6502L21.4577 1.57458L21.4366 0.0747256ZM20.9087 0.302506L13.8544 7.57521L14.9311 8.61954L21.9854 1.34684L20.9087 0.302506ZM16.3985 21.7302L21.7407 21.6545L21.7196 20.1547L16.3774 20.2303L16.3985 21.7302ZM22.4797 20.894L22.4043 15.5398L20.9044 15.5611L20.9799 20.9152L22.4797 20.894ZM22.2534 20.3674L14.997 13.2973L13.9502 14.3717L21.2066 21.4418L22.2534 20.3674ZM2.23723 6.45171L2.16177 1.09753L0.661924 1.11876L0.737377 6.47294L2.23723 6.45171ZM1.42265 1.85819L6.76482 1.78257L6.74368 0.282715L1.40152 0.358338L1.42265 1.85819ZM0.888678 1.64548L8.14506 8.71561L9.19188 7.64121L1.93549 0.571086L0.888678 1.64548Z"/>
</symbol><symbol viewBox="0 0 24 24" id="icon-remove"><path d="M19 13H5v-2h14v2z"/></symbol><symbol viewBox="0 0 32 32" id="icon-rss">
    <path d="M-0.465347858,2.01048219 C-0.465347858,2.01048219 28.7009958,0.574406533 31,31.3201126 L25.1092027,31.3201126 C25.1092027,31.3201126 26.2597741,8.90749482 -0.465347858,6.89506416 L-0.465347858,2.01048219 L-0.465347858,2.01048219 Z M-0.465347858,12.2127144 C-0.465347858,12.2127144 16.6328276,11.6363594 19.9369779,31.3201126 L14.0472499,31.3201126 C14.0472499,31.3201126 13.3297467,19.6839434 -0.465347858,17.0940884 L-0.465347858,12.2127144 L-0.465347858,12.2127144 Z M2.73614917,25.0304648 C4.79776783,25.0304648 6.47229834,26.7007181 6.47229834,28.766614 C6.47229834,30.8282326 4.79776783,32.5016938 2.73614917,32.5016938 C0.6723919,32.5016938 -1,30.8293019 -1,28.766614 C-1,26.7017874 0.6723919,25.0304648 2.73614917,25.0304648 Z" id="rss-Shape"/>
</symbol><symbol viewBox="0 0 24 24" id="icon-search">
<path d="M11.5 21C16.7467 21 21 16.7467 21 11.5C21 6.25329 16.7467 2 11.5 2C6.25329 2 2 6.25329 2 11.5C2 16.7467 6.25329 21 11.5 21Z" stroke-width="1.5" stroke-linecap="round" stroke-linejoin="round"/>
<path d="M22 22L20 20" stroke-width="1.5" stroke-linecap="round" stroke-linejoin="round"/>
</symbol><symbol viewBox="0 0 24 24" id="icon-share">
<path d="M16.96 6.17004C18.96 7.56004 20.34 9.77004 20.62 12.32" stroke-width="1.5" stroke-linecap="round" stroke-linejoin="round"/>
<path d="M3.48999 12.37C3.74999 9.82997 5.10999 7.61997 7.08999 6.21997" stroke-width="1.5" stroke-linecap="round" stroke-linejoin="round"/>
<path d="M8.18994 20.9399C9.34994 21.5299 10.6699 21.8599 12.0599 21.8599C13.3999 21.8599 14.6599 21.5599 15.7899 21.0099" stroke-width="1.5" stroke-linecap="round" stroke-linejoin="round"/>
<path d="M12.06 7.70001C13.5954 7.70001 14.84 6.45537 14.84 4.92001C14.84 3.38466 13.5954 2.14001 12.06 2.14001C10.5247 2.14001 9.28003 3.38466 9.28003 4.92001C9.28003 6.45537 10.5247 7.70001 12.06 7.70001Z" stroke-width="1.5" stroke-linecap="round" stroke-linejoin="round"/>
<path d="M4.83005 19.92C6.3654 19.92 7.61005 18.6753 7.61005 17.14C7.61005 15.6046 6.3654 14.36 4.83005 14.36C3.2947 14.36 2.05005 15.6046 2.05005 17.14C2.05005 18.6753 3.2947 19.92 4.83005 19.92Z" stroke-width="1.5" stroke-linecap="round" stroke-linejoin="round"/>
<path d="M19.1699 19.92C20.7052 19.92 21.9499 18.6753 21.9499 17.14C21.9499 15.6046 20.7052 14.36 19.1699 14.36C17.6345 14.36 16.3899 15.6046 16.3899 17.14C16.3899 18.6753 17.6345 19.92 19.1699 19.92Z" stroke-width="1.5" stroke-linecap="round" stroke-linejoin="round"/>
</symbol><symbol viewBox="0 0 26 28" id="icon-star">
<path d="M0 10.109q0-0.578 0.875-0.719l7.844-1.141 3.516-7.109q0.297-0.641 0.766-0.641t0.766 0.641l3.516 7.109 7.844 1.141q0.875 0.141 0.875 0.719 0 0.344-0.406 0.75l-5.672 5.531 1.344 7.812q0.016 0.109 0.016 0.313 0 0.328-0.164 0.555t-0.477 0.227q-0.297 0-0.625-0.187l-7.016-3.687-7.016 3.687q-0.344 0.187-0.625 0.187-0.328 0-0.492-0.227t-0.164-0.555q0-0.094 0.031-0.313l1.344-7.812-5.688-5.531q-0.391-0.422-0.391-0.75z"/>
</symbol><symbol viewBox="0 0 32 32" id="icon-stumbleupon">
    
    <mask id="stumbleupon-mask-2">
        <use href="#path-1"/>
    </mask>
    <path d="M31.9250667,16.0373333 C31.9250667,24.8533333 24.7784,32 15.9624,32 C7.14666667,32 0,24.8533333 0,16.0373333 C0,7.2216 7.14666667,0.0749333333 15.9624,0.0749333333 C24.7784,0.0749333333 31.9250667,7.2216 31.9250667,16.0373333 Z M21.9205547,16.3600826 L21.9205547,18.9857015 C21.9205547,19.5214765 21.494073,19.9558236 20.968,19.9558236 C20.441927,19.9558236 20.0154453,19.5214765 20.0154453,18.9857015 L20.0154453,16.4101275 L18.1823358,16.9675798 L16.9525547,16.3839008 L16.9525547,18.9383327 C16.9717372,21.1844666 18.7659562,23 20.976146,23 C23.1984234,23 25,21.1651979 25,18.9019364 L25,16.3600826 L21.9205547,16.3600826 Z M16.9525547,14.2429415 L18.1823358,14.8266205 L20.0154453,14.2691683 L20.0154453,12.9736203 C19.9505401,10.7684323 18.1810219,9 16,9 C13.8268613,9 12.0618102,10.7555866 11.9845547,12.9492669 L11.9845547,18.8684839 C11.9845547,19.404259 11.558073,19.8386061 11.032,19.8386061 C10.505927,19.8386061 10.0794453,19.404259 10.0794453,18.8684839 L10.0794453,16.3600826 L7,16.3600826 L7,18.9019364 C7,21.1651979 8.80131387,23 11.0235912,23 C13.2264234,23 15.0119708,21.1965095 15.0429781,18.9608128 L15.0474453,13.114656 C15.0474453,12.578881 15.473927,12.1445339 16,12.1445339 C16.526073,12.1445339 16.9525547,12.578881 16.9525547,13.114656 L16.9525547,14.2429415 Z" id="stumbleupon-Fill-1" mask="url(#stumbleupon-mask-2)"/>
</symbol><symbol viewBox="0 0 32 32" id="icon-tumblr">
    <path d="M23.852762,25.5589268 C23.2579209,25.8427189 22.1195458,26.089634 21.2697728,26.1120809 C18.7092304,26.1810247 18.2121934,24.3131275 18.1897466,22.9566974 L18.1897466,12.9951133 L24.6159544,12.9951133 L24.6159544,8.15140729 L18.2137967,8.15140729 L18.2137967,0 L13.5256152,0 C13.4486546,0 13.3139736,0.0673405008 13.2963368,0.238898443 C13.0221648,2.73370367 11.8533261,7.11243957 7,8.86168924 L7,12.9951133 L10.2387574,12.9951133 L10.2387574,23.4521311 C10.2387574,27.0307977 12.8794671,32.1166089 19.8508122,31.9979613 C22.2013164,31.9578777 24.8131658,30.9718204 25.3919735,30.1236507 L23.852762,25.5589268"/>
</symbol><symbol viewBox="0 0 24 24" id="icon-usp-icon-1">
<path d="M16.6992 18.9804H7.29922C6.87922 18.9804 6.40922 18.6504 6.26922 18.2504L2.12922 6.67035C1.53922 5.01035 2.22922 4.50035 3.64922 5.52035L7.54922 8.31035C8.19922 8.76035 8.93922 8.53035 9.21922 7.80035L10.9792 3.11035C11.5392 1.61035 12.4692 1.61035 13.0292 3.11035L14.7892 7.80035C15.0692 8.53035 15.8092 8.76035 16.4492 8.31035L20.1092 5.70035C21.6692 4.58035 22.4192 5.15035 21.7792 6.96035L17.7392 18.2704C17.5892 18.6504 17.1192 18.9804 16.6992 18.9804Z" stroke-width="1.5" stroke-linecap="round" stroke-linejoin="round"/>
<path d="M6.5 22H17.5" stroke-width="1.5" stroke-linecap="round" stroke-linejoin="round"/>
<path d="M9.5 14H14.5" stroke-width="1.5" stroke-linecap="round" stroke-linejoin="round"/>
</symbol><symbol viewBox="0 0 24 24" id="icon-usp-icon-2">
<path d="M3.16992 7.44043L11.9999 12.5504L20.7699 7.4704" stroke-width="1.5" stroke-linecap="round" stroke-linejoin="round"/>
<path d="M12 21.61V12.54" stroke-width="1.5" stroke-linecap="round" stroke-linejoin="round"/>
<path d="M9.9306 2.48L4.59061 5.45003C3.38061 6.12003 2.39062 7.80001 2.39062 9.18001V14.83C2.39062 16.21 3.38061 17.89 4.59061 18.56L9.9306 21.53C11.0706 22.16 12.9406 22.16 14.0806 21.53L19.4206 18.56C20.6306 17.89 21.6206 16.21 21.6206 14.83V9.18001C21.6206 7.80001 20.6306 6.12003 19.4206 5.45003L14.0806 2.48C12.9306 1.84 11.0706 1.84 9.9306 2.48Z" stroke-width="1.5" stroke-linecap="round" stroke-linejoin="round"/>
<path d="M16.9998 13.2396V9.57965L7.50977 4.09961" stroke-width="1.5" stroke-linecap="round" stroke-linejoin="round"/>
</symbol><symbol viewBox="0 0 24 24" id="icon-usp-icon-3">
<path d="M7.48047 18.3505L10.5805 20.7505C10.9805 21.1505 11.8805 21.3505 12.4805 21.3505H16.2805C17.4805 21.3505 18.7805 20.4505 19.0805 19.2505L21.4805 11.9505C21.9805 10.5505 21.0805 9.35046 19.5805 9.35046H15.5805C14.9805 9.35046 14.4805 8.85046 14.5805 8.15046L15.0805 4.95046C15.2805 4.05046 14.6805 3.05046 13.7805 2.75046C12.9805 2.45046 11.9805 2.85046 11.5805 3.45046L7.48047 9.55046" stroke-width="1.5" stroke-miterlimit="10"/>
<path d="M2.38086 18.3504V8.55039C2.38086 7.15039 2.98086 6.65039 4.38086 6.65039H5.38086C6.78086 6.65039 7.38086 7.15039 7.38086 8.55039V18.3504C7.38086 19.7504 6.78086 20.2504 5.38086 20.2504H4.38086C2.98086 20.2504 2.38086 19.7504 2.38086 18.3504Z" stroke-width="1.5" stroke-linecap="round" stroke-linejoin="round"/>
</symbol><symbol viewBox="0 0 20 20" id="icon-wishlist">
<path d="M10.5165 17.3417C10.2332 17.4417 9.7665 17.4417 9.48317 17.3417C7.0665 16.5167 1.6665 13.075 1.6665 7.24167C1.6665 4.66667 3.7415 2.58334 6.29984 2.58334C7.8165 2.58334 9.15817 3.31667 9.99984 4.45C10.8415 3.31667 12.1915 2.58334 13.6998 2.58334C16.2582 2.58334 18.3332 4.66667 18.3332 7.24167C18.3332 13.075 12.9332 16.5167 10.5165 17.3417Z" stroke-width="1.5" stroke-linecap="round" stroke-linejoin="round"/>
</symbol><symbol viewBox="0 0 24 24" id="icon-x">
<path d="M18.3263 1.9043H21.6998L14.3297 10.3278L23 21.7903H16.2112L10.894 14.8383L4.80995 21.7903H1.43443L9.31743 12.7804L1 1.9043H7.96111L12.7674 8.25863L18.3263 1.9043ZM17.1423 19.7711H19.0116L6.94539 3.81743H4.93946L17.1423 19.7711Z"/>
</symbol><symbol viewBox="0 0 24 24" id="icon-youtube">
<path d="M23.7609 7.1998C23.7609 7.1998 23.5266 5.54512 22.8047 4.81855C21.8906 3.8623 20.8688 3.85762 20.4 3.80137C17.0438 3.55762 12.0047 3.55762 12.0047 3.55762H11.9953C11.9953 3.55762 6.95625 3.55762 3.6 3.80137C3.13125 3.85762 2.10938 3.8623 1.19531 4.81855C0.473438 5.54512 0.24375 7.1998 0.24375 7.1998C0.24375 7.1998 0 9.14512 0 11.0857V12.9045C0 14.8451 0.239062 16.7904 0.239062 16.7904C0.239062 16.7904 0.473437 18.4451 1.19062 19.1717C2.10469 20.1279 3.30469 20.0951 3.83906 20.1982C5.76094 20.3811 12 20.4373 12 20.4373C12 20.4373 17.0438 20.4279 20.4 20.1889C20.8688 20.1326 21.8906 20.1279 22.8047 19.1717C23.5266 18.4451 23.7609 16.7904 23.7609 16.7904C23.7609 16.7904 24 14.8498 24 12.9045V11.0857C24 9.14512 23.7609 7.1998 23.7609 7.1998ZM9.52031 15.1123V8.36699L16.0031 11.7514L9.52031 15.1123Z"/>
</symbol></svg>